<svg width="1440" height="1707" viewBox="0 0 1440 1707" fill="none" xmlns="http://www.w3.org/2000/svg">
<path fill-rule="evenodd" clip-rule="evenodd" d="M21.7054 55L67.8686 123.833C114.032 192.667 206.358 330.333 252.522 468C298.685 605.667 298.685 743.333 232.737 881C166.79 1018.67 34.8949 1156.33 -17.8631 1294C-70.621 1431.67 -44.242 1569.33 -31.0526 1638.17L-17.8631 1707H-97V1638.17C-97 1569.33 -97 1431.67 -97 1294C-97 1156.33 -97 1018.67 -97 881C-97 743.333 -97 605.667 -97 468C-97 330.333 -97 192.667 -97 123.833V55L21.7054 55Z" fill="#111111"/>
<path fill-rule="evenodd" clip-rule="evenodd" d="M0 63.7778H60C120 63.7778 240 63.7778 360 106.296C480 148.815 600 233.852 720 265.741C840 297.63 960 276.37 1080 318.889C1200 361.407 1320 467.704 1380 520.852L1440 574V0H1380C1320 0 1200 0 1080 0C960 0 840 0 720 0C600 0 480 0 360 0C240 0 120 0 60 0H0V63.7778Z" fill="#111111"/>
</svg>
